# xmcd
#
# Track frame offsets:
#	150
#	19187
#	44057
#	54445
#
# Disc length: 1068 seconds
#
# Revision: 21
# Processed by: cddbd v1.5.2PL0 Copyright (c) Steve Scherf et al.
# Submitted via: audiograbber 1.83.01
#
DISCID=30042a04
DTITLE=Joachim Witt - (Maxi) Die Flut
DYEAR=1998
DGENRE=Industrial
TTITLE0=Witt und Heppner - Die Flut [Radio Edit]
TTITLE1=Joachim Witt - Wintermärz
TTITLE2=Peter Heppner - Twelve
TTITLE3=Witt und Heppner - Die Flut [Long Version]
EXTD=
EXTT0=
EXTT1=
EXTT2=
EXTT3=
PLAYORDER=
